<svg xmlns="http://www.w3.org/2000/svg" viewBox="0 0 180 180" fill="none" role="img" aria-label="AI Lab Portal">
  <rect width="180" height="180" rx="40" fill="#F7F4ED"/>
  <g transform="translate(22 18) scale(4.375)">
    <path
      fill="#50B33A"
      d="M5.2 23.2V14.4c0-2.6 1.6-4.2 3.9-4.2 1.9 0 3.2 1.1 3.5 2.8H9.8c-.2-.7-.7-1.1-1.5-1.1-.9 0-1.5.6-1.5 1.4v1.1h2.4c2.2 0 3.7 1.3 3.7 3.4 0 2.2-1.6 3.6-3.9 3.6H5.2zm2.3-2h2.1c1 0 1.6-.5 1.6-1.3 0-.8-.6-1.3-1.6-1.3H7.5v2.6z"
    />
    <rect x="15.6" y="14.2" width="2.3" height="9" rx="1.15" fill="#191919"/>
    <circle cx="16.75" cy="10.2" r="2.15" fill="#50B33A"/>
  </g>
</svg>
